<?xml version="1.0" standalone="no"?>
<!DOCTYPE svg PUBLIC "-//W3C//DTD SVG 20010904//EN"
 "http://www.w3.org/TR/2001/REC-SVG-20010904/DTD/svg10.dtd">
<svg version="1.0" xmlns="http://www.w3.org/2000/svg"
 width="96.000000pt" height="96.000000pt" viewBox="0 0 96.000000 96.000000"
 preserveAspectRatio="xMidYMid meet">

<g transform="translate(0.000000,96.000000) scale(0.100000,-0.100000)"
fill="#000000" stroke="none">
<path d="M692 868 c-16 -16 -16 -200 0 -216 7 -7 28 -12 48 -12 43 0 60 15 60
52 0 26 3 28 40 28 l40 0 0 40 0 40 -40 0 c-37 0 -40 2 -40 28 0 15 -5 33 -12
40 -16 16 -80 16 -96 0z"/>
<path d="M80 760 l0 -40 260 0 260 0 0 40 0 40 -260 0 -260 0 0 -40z"/>
<path d="M252 588 c-16 -16 -16 -200 0 -216 16 -16 80 -16 96 0 7 7 12 25 12
40 l0 28 260 0 260 0 0 40 0 40 -260 0 -260 0 0 28 c0 37 -17 52 -60 52 -20 0
-41 -5 -48 -12z"/>
<path d="M80 480 l0 -40 40 0 40 0 0 40 0 40 -40 0 -40 0 0 -40z"/>
<path d="M492 308 c-16 -16 -16 -200 0 -216 16 -16 80 -16 96 0 7 7 12 25 12
40 l0 28 140 0 140 0 0 40 0 40 -140 0 -140 0 0 28 c0 15 -5 33 -12 40 -16 16
-80 16 -96 0z"/>
<path d="M80 200 l0 -40 160 0 160 0 0 40 0 40 -160 0 -160 0 0 -40z"/>
</g>
</svg>
