<?xml version="1.0" encoding="UTF-8"?>
<!DOCTYPE svg PUBLIC "-//W3C//DTD SVG 1.1//EN" "http://www.w3.org/Graphics/SVG/1.1/DTD/svg11.dtd">
<svg xmlns="http://www.w3.org/2000/svg" version="1.1" width="100px" height="100px" style="shape-rendering:geometricPrecision; text-rendering:geometricPrecision; image-rendering:optimizeQuality; fill-rule:evenodd; clip-rule:evenodd" xmlns:xlink="http://www.w3.org/1999/xlink">
<g><path style="opacity:0.992" fill="#86847c" d="M 41.5,7.5 C 67.1603,5.68046 83.6603,17.0138 91,41.5C 93.5336,65.277 83.7003,81.4437 61.5,90C 33.9965,94.8401 16.1632,84.0068 8,57.5C 5.90005,31.7927 17.0667,15.126 41.5,7.5 Z M 33.5,30.5 C 39.09,34.749 44.4234,39.4157 49.5,44.5C 54.3185,40.1819 58.9852,35.6819 63.5,31C 66.3333,31.1667 67.8333,32.6667 68,35.5C 63.3181,40.0148 58.8181,44.6815 54.5,49.5C 58.8181,54.3185 63.3181,58.9852 68,63.5C 67.8333,66.3333 66.3333,67.8333 63.5,68C 58.9852,63.3181 54.3185,58.8181 49.5,54.5C 44.6815,58.8181 40.0148,63.3181 35.5,68C 32.6667,67.8333 31.1667,66.3333 31,63.5C 35.6819,58.9852 40.1819,54.3185 44.5,49.5C 40.1819,44.6815 35.6819,40.0148 31,35.5C 31.0579,33.5646 31.8912,31.8979 33.5,30.5 Z"/></g>
</svg>
