<svg xmlns="http://www.w3.org/2000/svg" xmlns:xlink="http://www.w3.org/1999/xlink" version="1.1" width="1000" height="1000" viewBox="0 0 1000 1000" xml:space="preserve">
<desc>Created with Fabric.js 3.5.0</desc>
<defs>
</defs>
<rect x="0" y="0" width="100%" height="100%" fill="#ffffff"/>
<g transform="matrix(15.1515 0 0 15.1515 499.9995 499.9995)" id="360285">
<path style="stroke: none; stroke-width: 1; stroke-dasharray: none; stroke-linecap: butt; stroke-dashoffset: 0; stroke-linejoin: miter; stroke-miterlimit: 4; is-custom-font: none; font-file-url: none; fill: rgb(216,217,216); fill-rule: evenodd; opacity: 1;" vector-effect="non-scaling-stroke" transform=" translate(-33, -34)" d="M 49.837 48.137 V 36.425 c 0 -6.275 -3.35 -9.195 -7.816 -9.195 c -3.604 0 -5.219 1.983 -6.119 3.374 V 27.71 h -6.79 c 0.09 1.917 0 20.427 0 20.427 h 6.79 V 36.729 c 0 -0.609 0.044 -1.219 0.224 -1.655 c 0.49 -1.22 1.607 -2.483 3.482 -2.483 c 2.458 0 3.44 1.873 3.44 4.618 v 10.929 H 49.837 z M 21.959 24.922 c 2.367 0 3.842 -1.57 3.842 -3.531 c -0.044 -2.003 -1.475 -3.528 -3.797 -3.528 s -3.841 1.524 -3.841 3.528 c 0 1.961 1.474 3.531 3.753 3.531 H 21.959 z M 33 64 C 16.432 64 3 50.568 3 34 C 3 17.431 16.432 4 33 4 s 30 13.431 30 30 C 63 50.568 49.568 64 33 64 z M 25.354 48.137 V 27.71 h -6.789 v 20.427 H 25.354 z" stroke-linecap="round"/>
</g>
<g transform="matrix(2.0363 0 0 2.0363 390.9409 395.2902)" id="769437">
<path style="stroke: rgb(216,217,216); stroke-width: 1; stroke-dasharray: none; stroke-linecap: butt; stroke-dashoffset: 0; stroke-linejoin: miter; stroke-miterlimit: 4; is-custom-font: none; font-file-url: none; fill: rgb(216,217,216); fill-rule: nonzero; opacity: 1;" vector-effect="non-scaling-stroke" transform=" translate(-110.042, -105.6535)" d="M 187.2 109.049 C 153.504 114.041 136.552 120.593 136.344 128.705 C 136.136 136.817 133.848 154.289 129.48 181.121 C 125.112 207.953 114.712 216.897 98.28 207.953 C 81.848 199.009 64.688 192.145 46.8 187.361 C 28.912 182.577 25.376 169.369 36.192 147.737 C 47.008 126.105 41.6 108.009 19.968 93.449 C -1.664 78.889 -5.72 64.641 7.8 50.705 C 21.32 36.769 37.232 30.529 55.536 31.985 C 73.84 33.441 89.544 26.889 102.648 12.329 C 115.752 -2.23097 128.856 -3.89497 141.96 7.33703 C 155.064 18.569 165.256 30.529 172.536 43.217 C 179.816 55.905 192.504 68.801 210.6 81.905 C 228.696 95.009 220.896 104.057 187.2 109.049 Z" stroke-linecap="round"/>
</g>
<g transform="matrix(2.0363 0 0 2.0363 579.4192 527.609)" id="404920">
<path style="stroke: rgb(216,217,216); stroke-width: 1; stroke-dasharray: none; stroke-linecap: butt; stroke-dashoffset: 0; stroke-linejoin: miter; stroke-miterlimit: 4; is-custom-font: none; font-file-url: none; fill: rgb(216,217,216); fill-rule: nonzero; opacity: 1;" vector-effect="non-scaling-stroke" transform=" translate(-110.042, -105.6535)" d="M 187.2 109.049 C 153.504 114.041 136.552 120.593 136.344 128.705 C 136.136 136.817 133.848 154.289 129.48 181.121 C 125.112 207.953 114.712 216.897 98.28 207.953 C 81.848 199.009 64.688 192.145 46.8 187.361 C 28.912 182.577 25.376 169.369 36.192 147.737 C 47.008 126.105 41.6 108.009 19.968 93.449 C -1.664 78.889 -5.72 64.641 7.8 50.705 C 21.32 36.769 37.232 30.529 55.536 31.985 C 73.84 33.441 89.544 26.889 102.648 12.329 C 115.752 -2.23097 128.856 -3.89497 141.96 7.33703 C 155.064 18.569 165.256 30.529 172.536 43.217 C 179.816 55.905 192.504 68.801 210.6 81.905 C 228.696 95.009 220.896 104.057 187.2 109.049 Z" stroke-linecap="round"/>
</g>
<g transform="matrix(1.5887 -1.2737 1.2737 1.5887 398.3322 616.4497)" id="280535">
<path style="stroke: rgb(216,217,216); stroke-width: 1; stroke-dasharray: none; stroke-linecap: butt; stroke-dashoffset: 0; stroke-linejoin: miter; stroke-miterlimit: 4; is-custom-font: none; font-file-url: none; fill: rgb(216,217,216); fill-rule: nonzero; opacity: 1;" vector-effect="non-scaling-stroke" transform=" translate(-110.042, -105.6535)" d="M 187.2 109.049 C 153.504 114.041 136.552 120.593 136.344 128.705 C 136.136 136.817 133.848 154.289 129.48 181.121 C 125.112 207.953 114.712 216.897 98.28 207.953 C 81.848 199.009 64.688 192.145 46.8 187.361 C 28.912 182.577 25.376 169.369 36.192 147.737 C 47.008 126.105 41.6 108.009 19.968 93.449 C -1.664 78.889 -5.72 64.641 7.8 50.705 C 21.32 36.769 37.232 30.529 55.536 31.985 C 73.84 33.441 89.544 26.889 102.648 12.329 C 115.752 -2.23097 128.856 -3.89497 141.96 7.33703 C 155.064 18.569 165.256 30.529 172.536 43.217 C 179.816 55.905 192.504 68.801 210.6 81.905 C 228.696 95.009 220.896 104.057 187.2 109.049 Z" stroke-linecap="round"/>
</g>
<g transform="matrix(1.5887 -1.2737 1.2737 1.5887 693.6945 549.4932)" id="495638">
<path style="stroke: rgb(216,217,216); stroke-width: 1; stroke-dasharray: none; stroke-linecap: butt; stroke-dashoffset: 0; stroke-linejoin: miter; stroke-miterlimit: 4; is-custom-font: none; font-file-url: none; fill: rgb(216,217,216); fill-rule: nonzero; opacity: 1;" vector-effect="non-scaling-stroke" transform=" translate(-110.042, -105.6535)" d="M 187.2 109.049 C 153.504 114.041 136.552 120.593 136.344 128.705 C 136.136 136.817 133.848 154.289 129.48 181.121 C 125.112 207.953 114.712 216.897 98.28 207.953 C 81.848 199.009 64.688 192.145 46.8 187.361 C 28.912 182.577 25.376 169.369 36.192 147.737 C 47.008 126.105 41.6 108.009 19.968 93.449 C -1.664 78.889 -5.72 64.641 7.8 50.705 C 21.32 36.769 37.232 30.529 55.536 31.985 C 73.84 33.441 89.544 26.889 102.648 12.329 C 115.752 -2.23097 128.856 -3.89497 141.96 7.33703 C 155.064 18.569 165.256 30.529 172.536 43.217 C 179.816 55.905 192.504 68.801 210.6 81.905 C 228.696 95.009 220.896 104.057 187.2 109.049 Z" stroke-linecap="round"/>
</g>
</svg>