<?xml version="1.0" standalone="no"?>
<!DOCTYPE svg PUBLIC "-//W3C//DTD SVG 20010904//EN"
 "http://www.w3.org/TR/2001/REC-SVG-20010904/DTD/svg10.dtd">
<svg version="1.0" xmlns="http://www.w3.org/2000/svg"
 width="100.000000pt" height="100.000000pt" viewBox="0 0 100.000000 100.000000"
 preserveAspectRatio="xMidYMid meet">

<g transform="translate(0.000000,100.000000) scale(0.100000,-0.100000)"
fill="#000000" stroke="none">
<path d="M710 500 l0 -330 125 0 125 0 0 330 0 330 -125 0 -125 0 0 -330z
m160 0 l0 -250 -40 0 -40 0 0 250 0 250 40 0 40 0 0 -250z"/>
<path d="M377 664 c-4 -4 -7 -117 -7 -251 l0 -243 130 0 130 0 -2 248 -3 247
-121 3 c-66 1 -123 -1 -127 -4z"/>
<path d="M40 335 l0 -165 125 0 125 0 0 165 0 165 -125 0 -125 0 0 -165z"/>
</g>
</svg>
